<?xml version="1.0" encoding="UTF-8"?>
<svg width="15px" height="14px" viewBox="0 0 15 14" version="1.1" xmlns="http://www.w3.org/2000/svg" xmlns:xlink="http://www.w3.org/1999/xlink">
    <!-- Generator: Sketch 49.1 (51147) - http://www.bohemiancoding.com/sketch -->
    <title>left-arrow (1)</title>
    <desc>Created with Sketch.</desc>
    <defs></defs>
    <g id="Page-1" stroke="none" stroke-width="1" fill="none" fill-rule="evenodd">
        <g id="left-arrow-(1)" transform="translate(8.000000, 6.969697) rotate(-225.000000) translate(-8.000000, -6.969697) translate(-2.000000, 0.000000)" fill="#1A1A1A" fill-rule="nonzero">
            <path d="M6.83212121,0.611515152 C7.10121212,0.342424242 7.52484848,0.342424242 7.79393939,0.611515152 C8.05393939,0.871515152 8.05393939,1.30424242 7.79393939,1.56363636 L2.9169697,6.44060606 L19.010303,6.44060606 C19.3854545,6.44060606 19.6933333,6.73878788 19.6933333,7.11393939 C19.6933333,7.48909091 19.3854545,7.7969697 19.010303,7.7969697 L2.9169697,7.7969697 L7.79393939,12.6648485 C8.05393939,12.9339394 8.05393939,13.3672727 7.79393939,13.6266667 C7.52484848,13.8957576 7.10121212,13.8957576 6.83212121,13.6266667 L0.800606061,7.59515152 C0.540606061,7.33515152 0.540606061,6.90242424 0.800606061,6.6430303 L6.83212121,0.611515152 Z" id="Shape"></path>
        </g>
    </g>
</svg>